# xmcd
#
# Track frame offsets: 
#        150
#        14830
#        29791
#        43660
#        57581
#        72410
#        102179
#        132888
#        152710
#        171483
#        193920
#        222087
#
# Disc length: 3429 seconds
#
# Revision: 2
# Processed by: cddbd v1.5.2PL0 Copyright (c) Steve Scherf et al.
# Submitted via: ExactAudioCopyFreeDBPlugin 1.0
#
DISCID=bc0d630c
DTITLE=Various Artist - Bebop CD022  Dizzy Gillespie 1952-53
DYEAR=1952
DGENRE=Jazz
TTITLE0=Hot Versus Cool - Dizzy Gillespie’s Cool Jazz Stars - How High
TTITLE0=The Moon
TTITLE1=Hot Versus Cool - Dizzy Gillespie’s Cool Jazz Stars - Indiana
TTITLE2=Hot Versus Cool - Dizzy Gillespie’s Cool Jazz Stars - Muskrat 
TTITLE2=Ramble
TTITLE3=Hot Versus Cool - Dizzy Gillespie’s Cool Jazz Stars - Battle O
TTITLE3=f Blues
TTITLE4=Dizzy Gillespie – Stan Getz Sextet - Girl Of My Dreams
TTITLE5=Dizzy Gillespie – Stan Getz Sextet - I Don't Mean A Thing
TTITLE6=Dizzy Gillespie – Stan Getz Sextet - It's The Talk Of The Town
TTITLE7=Dizzy Gillespie – Stan Getz Sextet - Siboney Part 1
TTITLE8=Dizzy Gillespie – Stan Getz Sextet - Siboney Part 2
TTITLE9=Dizzy Gillespie – Stan Getz Sextet - Exactly Like You
TTITLE10=Dizzy Gillespie – Stan Getz Sextet - I Let A Song Go Out Of M
TTITLE10=y Heart
TTITLE11=Dizzy Gillespie – Stan Getz Sextet - Impromptu
EXTD=YEAR: 2008
EXTT0=
EXTT1=
EXTT2=
EXTT3=
EXTT4=
EXTT5=
EXTT6=
EXTT7=
EXTT8=
EXTT9=
EXTT10=
EXTT11=
PLAYORDER=
